<svg xmlns="http://www.w3.org/2000/svg" viewBox="0 0 120 120" width="120" height="120" role="img" aria-label="Nils Grünefeld">
  <title>Nils Grünefeld — n̂</title>
  <g transform="translate(60.0 60.0) scale(1.3824) translate(-60.0 -56.0)">
    <path d="M30 90 Q36 82 36 63 L36 58 C36 36 84 36 84 58 L84 63 Q84 82 90 90 L70 90 L70 60 C70 54 50 54 50 60 L50 90 Z" fill="#ffffff"/>
    <path d="M40.0 35.38 L40.62 35.25 L41.25 35.1 L41.88 34.92 L42.5 34.72 L43.12 34.49 L43.75 34.22 L44.38 33.92 L45.0 33.59 L45.62 33.21 L46.25 32.8 L46.88 32.36 L47.5 31.87 L48.12 31.35 L48.75 30.79 L49.38 30.2 L50.0 29.59 L50.62 28.95 L51.25 28.3 L51.88 27.64 L52.5 26.98 L53.12 26.32 L53.75 25.68 L54.38 25.07 L55.0 24.48 L55.62 23.94 L56.25 23.46 L56.88 23.03 L57.5 22.67 L58.12 22.38 L58.75 22.17 L59.38 22.04 L60.0 22.0 L60.62 22.04 L61.25 22.17 L61.88 22.38 L62.5 22.67 L63.12 23.03 L63.75 23.46 L64.38 23.94 L65.0 24.48 L65.62 25.07 L66.25 25.68 L66.88 26.32 L67.5 26.98 L68.12 27.64 L68.75 28.3 L69.38 28.95 L70.0 29.59 L70.62 30.2 L71.25 30.79 L71.88 31.35 L72.5 31.87 L73.12 32.36 L73.75 32.8 L74.38 33.21 L75.0 33.59 L75.62 33.92 L76.25 34.22 L76.88 34.49 L77.5 34.72 L78.12 34.92 L78.75 35.1 L79.38 35.25 L80.0 35.38 L80.0 36 L40.0 36 Z" fill="#ffffff"/>
  </g>
</svg>
