<svg xmlns="http://www.w3.org/2000/svg" viewBox="0 0 120 120" width="120" height="120" role="img" aria-label="Nils Grünefeld">
  <title>Nils Grünefeld — n̂</title>
  <g transform="translate(60.0 60.0) scale(1.3824) translate(-60.0 -56.0)">
    <path d="M30 90 Q36 82 36 63 L36 58 C36 36 84 36 84 58 L84 63 Q84 82 90 90 L70 90 L70 60 C70 54 50 54 50 60 L50 90 Z" fill="#1f4e79"/>
    <path d="M40.0 35.38 L40.62 35.25 L41.25 35.1 L41.88 34.92 L42.5 34.72 L43.12 34.49 L43.75 34.22 L44.38 33.92 L45.0 33.59 L45.62 33.21 L46.25 32.8 L46.88 32.36 L47.5 31.87 L48.12 31.35 L48.75 30.79 L49.38 30.2 L50.0 29.59 L50.62 28.95 L51.25 28.3 L51.88 27.64 L52.5 26.98 L53.12 26.32 L53.75 25.68 L54.38 25.07 L55.0 24.48 L55.62 23.94 L56.25 23.46 L56.88 23.03 L57.5 22.67 L58.12 22.38 L58.75 22.17 L59.38 22.04 L60.0 22.0 L60.62 22.04 L61.25 22.17 L61.88 22.38 L62.5 22.67 L63.12 23.03 L63.75 23.46 L64.38 23.94 L65.0 24.48 L65.62 25.07 L66.25 25.68 L66.88 26.32 L67.5 26.98 L68.12 27.64 L68.75 28.3 L69.38 28.95 L70.0 29.59 L70.62 30.2 L71.25 30.79 L71.88 31.35 L72.5 31.87 L73.12 32.36 L73.75 32.8 L74.38 33.21 L75.0 33.59 L75.62 33.92 L76.25 34.22 L76.88 34.49 L77.5 34.72 L78.12 34.92 L78.75 35.1 L79.38 35.25 L80.0 35.38 L80.0 35.62 L79.38 35.54 L78.75 35.44 L78.12 35.33 L77.5 35.21 L76.88 35.06 L76.25 34.9 L75.62 34.71 L75.0 34.5 L74.38 34.27 L73.75 34.02 L73.12 33.74 L72.5 33.44 L71.88 33.12 L71.25 32.77 L70.62 32.41 L70.0 32.03 L69.38 31.63 L68.75 31.23 L68.12 30.82 L67.5 30.41 L66.88 30.0 L66.25 29.6 L65.62 29.22 L65.0 28.86 L64.38 28.53 L63.75 28.22 L63.12 27.96 L62.5 27.73 L61.88 27.56 L61.25 27.43 L60.62 27.35 L60.0 27.32 L59.38 27.35 L58.75 27.43 L58.12 27.56 L57.5 27.73 L56.88 27.96 L56.25 28.22 L55.62 28.53 L55.0 28.86 L54.38 29.22 L53.75 29.6 L53.12 30.0 L52.5 30.41 L51.88 30.82 L51.25 31.23 L50.62 31.63 L50.0 32.03 L49.38 32.41 L48.75 32.77 L48.12 33.12 L47.5 33.44 L46.88 33.74 L46.25 34.02 L45.62 34.27 L45.0 34.5 L44.38 34.71 L43.75 34.9 L43.12 35.06 L42.5 35.21 L41.88 35.33 L41.25 35.44 L40.62 35.54 L40.0 35.62 Z" fill="#1f4e79"/>
  </g>
</svg>
