<svg xmlns="http://www.w3.org/2000/svg" viewBox="0 0 120 120" width="120" height="120" role="img" aria-label="Nils Grünefeld">
  <title>Nils Grünefeld — n̂</title>
  <g transform="translate(60.0 60.0) scale(1.4706) translate(-60.0 -56.0)">
    <path d="M30 90 Q36 82 36 63 L36 58 C36 36 84 36 84 58 L84 63 Q84 82 90 90 L70 90 L70 60 C70 54 50 54 50 60 L50 90 Z" fill="#1f4e79"/>
    <path d="M41.25 35.38 L41.84 35.25 L42.42 35.1 L43.01 34.92 L43.59 34.72 L44.18 34.49 L44.77 34.22 L45.35 33.92 L45.94 33.59 L46.52 33.21 L47.11 32.8 L47.7 32.36 L48.28 31.87 L48.87 31.35 L49.45 30.79 L50.04 30.2 L50.62 29.59 L51.21 28.95 L51.8 28.3 L52.38 27.64 L52.97 26.98 L53.55 26.32 L54.14 25.68 L54.73 25.07 L55.31 24.48 L55.9 23.94 L56.48 23.46 L57.07 23.03 L57.66 22.67 L58.24 22.38 L58.83 22.17 L59.41 22.04 L60.0 22.0 L60.59 22.04 L61.17 22.17 L61.76 22.38 L62.34 22.67 L62.93 23.03 L63.52 23.46 L64.1 23.94 L64.69 24.48 L65.27 25.07 L65.86 25.68 L66.45 26.32 L67.03 26.98 L67.62 27.64 L68.2 28.3 L68.79 28.95 L69.38 29.59 L69.96 30.2 L70.55 30.79 L71.13 31.35 L71.72 31.87 L72.3 32.36 L72.89 32.8 L73.48 33.21 L74.06 33.59 L74.65 33.92 L75.23 34.22 L75.82 34.49 L76.41 34.72 L76.99 34.92 L77.58 35.1 L78.16 35.25 L78.75 35.38 L78.75 35.69 L78.16 35.63 L77.58 35.55 L76.99 35.46 L76.41 35.36 L75.82 35.24 L75.23 35.11 L74.65 34.96 L74.06 34.79 L73.48 34.61 L72.89 34.4 L72.3 34.18 L71.72 33.93 L71.13 33.67 L70.55 33.4 L69.96 33.1 L69.38 32.8 L68.79 32.48 L68.2 32.15 L67.62 31.82 L67.03 31.49 L66.45 31.16 L65.86 30.84 L65.27 30.53 L64.69 30.24 L64.1 29.97 L63.52 29.73 L62.93 29.51 L62.34 29.33 L61.76 29.19 L61.17 29.08 L60.59 29.02 L60.0 29.0 L59.41 29.02 L58.83 29.08 L58.24 29.19 L57.66 29.33 L57.07 29.51 L56.48 29.73 L55.9 29.97 L55.31 30.24 L54.73 30.53 L54.14 30.84 L53.55 31.16 L52.97 31.49 L52.38 31.82 L51.8 32.15 L51.21 32.48 L50.62 32.8 L50.04 33.1 L49.45 33.4 L48.87 33.67 L48.28 33.93 L47.7 34.18 L47.11 34.4 L46.52 34.61 L45.94 34.79 L45.35 34.96 L44.77 35.11 L44.18 35.24 L43.59 35.36 L43.01 35.46 L42.42 35.55 L41.84 35.63 L41.25 35.69 Z" fill="#1f4e79"/>
  </g>
</svg>
